<svg width="73" height="74" fill="none" xmlns="http://www.w3.org/2000/svg"><path d="M23.608.843c-.165.308-.191.249 1.539 3.436 1.45 2.67 1.613 3.021 1.396 3.021-.205 0-2.175 1.265-3.121 2.004-2.029 1.584-4.093 4.094-5.207 6.33-.936 1.881-1.594 4.307-1.743 6.429l-.083 1.175h40.372l-.084-1.327c-.223-3.506-1.618-6.868-4.122-9.933-1.258-1.54-3.224-3.182-5.071-4.237-.483-.276-.88-.551-.882-.612-.002-.06.592-1.21 1.32-2.555 1.911-3.532 1.869-3.44 1.713-3.731-.103-.192-.231-.24-.568-.211-.434.037-.437.041-1.995 2.896-.859 1.573-1.58 2.912-1.603 2.975-.024.064-.505-.058-1.069-.271-2.112-.797-3.941-1.196-6.219-1.358-3.235-.229-6.52.247-9.353 1.356-.533.208-.988.356-1.013.329-.025-.027-.769-1.378-1.653-3L24.554.608h-.41c-.281 0-.45.074-.536.235m4.773 12.081c.927.648.927 2.094 0 2.744-.734.514-1.611.401-2.213-.284-.32-.365-.375-.524-.375-1.088 0-.566.055-.723.378-1.091.6-.683 1.474-.794 2.21-.281m18.314-.07c.978.62.978 2.254 0 2.887-.64.415-1.479.303-2.058-.275-.436-.436-.472-.525-.472-1.152 0-.586.052-.738.377-1.109.581-.661 1.442-.802 2.153-.351M8.93 24.263c-1.13.353-2.281 1.446-2.754 2.616l-.275.679-.034 9.9c-.022 6.41.01 10.138.091 10.577.267 1.445 1.116 2.576 2.411 3.213.756.371.899.399 2.032.399.995-.001 1.324-.05 1.796-.267.862-.397 1.825-1.371 2.236-2.26l.35-.757.033-10.218c.034-10.102.031-10.227-.223-11.064-.224-.738-.362-.951-1.068-1.656-1.023-1.021-1.779-1.339-3.157-1.327-.517.005-1.164.079-1.438.165m52.259.105c-.374.158-.89.447-1.148.643-.63.48-1.354 1.63-1.516 2.408-.09.435-.121 3.837-.098 10.792l.034 10.157.399.81a4.95 4.95 0 0 0 2.183 2.179c.493.244.766.288 1.798.289 1.09.001 1.289-.034 1.915-.341a4.813 4.813 0 0 0 2.122-2.123l.343-.698V27.193l-.298-.609c-.384-.783-1.36-1.755-2.135-2.125-.922-.44-2.666-.484-3.599-.091m-44.589.61c-.033.087-.045 6.863-.027 15.056l.035 14.899.267.654c.563 1.373 1.514 2.328 2.804 2.817.585.221 1.045.276 2.799.331l2.099.065.014.561c.007.308.048 2.805.091 5.548l.077 4.989.357.703c.44.869 1.315 1.704 2.232 2.132.591.275.863.324 1.794.326.994.002 1.173-.035 1.9-.394a4.602 4.602 0 0 0 2.153-2.199l.324-.69.035-5.506.035-5.505H39.654l.035 5.566.035 5.567.289.581c.72 1.449 2.141 2.456 3.666 2.598 1.894.177 3.632-.797 4.476-2.51l.329-.669.034-5.549.034-5.549 2.156-.067c2.349-.073 2.786-.17 3.842-.848.737-.473 1.595-1.608 1.841-2.439.16-.537.184-2.595.184-15.622V24.82H36.618c-16.267 0-19.969.029-20.018.158" fill="#1A3453" fill-rule="evenodd"/></svg>