<svg width="73" height="74" fill="none" xmlns="http://www.w3.org/2000/svg"><path d="M48.667.926c-6.001 1.766-10.026 5.201-11.443 9.764-.545 1.754-.942 4.785-.769 5.868.068.423.114.475.42.475.601 0 3.533-.813 4.796-1.33 2.169-.888 3.783-1.92 5.336-3.41 1.824-1.75 2.798-3.614 3.297-6.314.192-1.039.254-3.756.11-4.806-.07-.51-.108-.564-.395-.558-.175.003-.784.143-1.352.311m-.913 17.156c-1.941.296-3.065.646-6.149 1.919-2.278.94-3.518 1.299-4.74 1.374-1.357.083-2.181-.117-4.663-1.133-3.947-1.615-5.159-1.91-7.808-1.898-4.278.019-7.599 1.377-10.818 4.423-2.659 2.516-4.606 5.538-5.717 8.874-2.958 8.874-.044 22.948 6.836 33.022 1.362 1.994 2.107 2.898 3.665 4.448 2.848 2.832 5.58 4.166 8.139 3.974 1.162-.087 1.891-.281 4.012-1.069 4.816-1.789 5.532-1.974 7.632-1.969 1.786.005 2.496.18 5.498 1.353 3.662 1.432 5.137 1.809 6.597 1.686 1.622-.136 3.045-.942 5.925-3.357 2.263-1.897 3.418-3.285 5.128-6.158 1.331-2.237 3.426-6.575 4.355-9.017l.282-.743-1.118-.559c-4.207-2.105-7.328-6.387-8.497-11.657-.335-1.511-.392-4.254-.116-5.642.387-1.95 1.352-4.106 2.665-5.954.842-1.185 2.951-3.332 4.064-4.14.687-.497.797-.625.698-.811-.208-.388-2.211-2.426-3.093-3.147-3.143-2.567-6.384-3.741-10.587-3.834-1.004-.022-1.989-.015-2.19.015" fill="#1A3453" fill-rule="evenodd"/></svg>