<svg width="74" height="74" fill="none" xmlns="http://www.w3.org/2000/svg"><path d="M36.247 23.741a1.73 1.73 0 0 0-.524.484c-.481.734-.572.621 4.977 6.175 2.849 2.852 5.18 5.226 5.18 5.276 0 .05-4.898.092-10.884.095-8.734.003-10.926.035-11.095.164-.549.416-.551 1.501-.005 1.93.304.24.529.245 11.175.245h10.864l-5.137 5.149c-3.57 3.579-5.164 5.258-5.226 5.507-.121.491.234 1.116.783 1.377.376.178.48.183.785.037.513-.245 12.9-12.664 12.964-12.997.029-.153-.008-.436-.081-.631-.076-.198-2.931-3.134-6.491-6.674-6.725-6.687-6.548-6.538-7.285-6.137" fill-rule="evenodd" fill="#000"/></svg>