<svg width="78" height="78" fill="none" xmlns="http://www.w3.org/2000/svg"><path d="M36.4.351c-2.717.212-6.113.846-8.566 1.599C15.138 5.849 5.467 15.719 1.807 28.515.349 33.614-.006 39.782.856 45.045c1.383 8.441 5.219 15.86 11.197 21.655 6.268 6.077 13.984 9.744 22.722 10.798 1.776.214 6.814.212 8.58-.003 7.274-.888 13.977-3.607 19.5-7.912 6.899-5.376 11.815-12.974 13.849-21.404.836-3.467 1.072-5.639 1.088-10.024.012-3.169-.003-3.408-.25-3.835-.793-1.372-3.524-1.384-4.208-.019-.204.408-.249.948-.319 3.854-.092 3.789-.298 5.762-.863 8.267-1.939 8.6-7.203 16.18-14.562 20.97a33.846 33.846 0 0 1-31.33 2.969c-4.307-1.765-7.665-4.028-11.121-7.494-3.55-3.562-5.774-6.933-7.594-11.517-2.286-5.757-2.91-12.083-1.808-18.33C8.257 18.73 19.669 7.692 34.255 5.436c2.425-.375 6.897-.404 9.23-.06 3.101.457 5.233 1.023 8.215 2.179 1.086.421 2.155.765 2.377.765 1.724 0 2.957-2.735 1.801-3.996-.962-1.052-6.891-2.998-10.991-3.609C42.207.316 38.751.168 36.4.351m38.09 7.33c-.25.149-8.323 8.134-17.94 17.745L39.064 42.9l-4.744-4.754c-2.61-2.614-4.962-4.867-5.227-5.005-.531-.276-1.077-.319-1.589-.125-.565.216-1.477 1.16-1.711 1.774-.445 1.162-.569 1.005 6.035 7.632 3.266 3.276 6.154 6.069 6.419 6.207.613.319 1.055.317 1.719-.006.361-.175 6.411-6.145 19.071-18.817C79.384 9.438 78.24 10.672 77.88 9.473c-.087-.291-.39-.78-.674-1.088-.902-.979-1.843-1.222-2.716-.704" fill-rule="evenodd" fill="#000"/></svg>