<svg width="74" height="73" fill="none" xmlns="http://www.w3.org/2000/svg"><path d="M32.992.305C20.293 1.762 9.213 9.791 4.006 21.308-2.15 34.925.596 50.843 10.949 61.562c5.492 5.686 12.395 9.334 20.131 10.64 9.204 1.554 18.594-.481 26.383-5.718 2.718-1.828 5.946-4.802 7.971-7.344 4.076-5.117 6.675-11.186 7.662-17.885.309-2.097.308-7.527-.001-9.62-1.577-10.683-7.226-19.681-16.017-25.509C52.48 3.077 47.789 1.301 41.995.418 40.246.151 34.913.084 32.992.305m2.775 10.117v7.831h-.342c-2.58 0-8.171-.654-11.231-1.314-1.08-.233-1.075-.067-.067-2.447 2.404-5.672 5.848-9.782 9.411-11.23.665-.27 1.851-.639 2.136-.664.051-.004.093 3.516.093 7.824M39.59 2.92c1.052.288 2.696 1.195 3.836 2.117 2.027 1.639 4.077 4.392 5.638 7.575.846 1.724 1.805 4.023 1.716 4.112-.076.076-2.276.505-3.975.775-1.837.292-4.714.58-6.999.701l-1.573.083V2.585l.339.075c.187.041.645.158 1.018.26M27.609 4.576c-2.835 3.124-4.929 6.51-6.267 10.129-.625 1.691-.243 1.605-3.027.682-1.637-.542-5.11-1.978-5.612-2.32-.151-.103.007-.308.864-1.125 3.839-3.66 8.644-6.471 13.648-7.984.667-.202 1.233-.37 1.257-.374.024-.004-.364.443-.863.992m20.032-.336c3.891 1.291 7.432 3.19 10.515 5.637 1.023.813 3.264 2.922 3.264 3.073 0 .122-2.145 1.116-3.824 1.771-1.331.52-4.322 1.483-4.375 1.408a37.527 37.527 0 0 1-.424-1.206c-1.193-3.485-3.569-7.374-6.236-10.205-.591-.628-1.039-1.141-.997-1.141.042 0 .977.298 2.077.663M14.376 16.469c.742.319 2.32.905 3.507 1.301 1.187.397 2.151.765 2.141.818-.01.053-.244 1.013-.519 2.132-.984 3.991-1.526 7.659-1.774 11.994l-.146 2.559H3.125l.045-.709c.443-6.953 2.864-13.495 6.948-18.773l.759-.982 1.075.54a55.26 55.26 0 0 0 2.424 1.12m49.819-.343c2.971 3.987 5.047 8.589 6.033 13.375.328 1.591.689 4.341.689 5.248v.526l-7.246-.032-7.246-.031-.026-1.049c-.112-4.412-.764-9.093-1.904-13.666-.276-1.106-.482-2.024-.458-2.04.025-.016.655-.211 1.401-.433 1.792-.534 4.741-1.714 6.352-2.54.712-.365 1.323-.668 1.357-.673.034-.005.505.587 1.048 1.315m-40.614 3.171c2.533.588 7.003 1.148 10.058 1.26l2.128.078v14.638H20.066l.084-1.942c.155-3.608.757-7.991 1.557-11.337.545-2.282.737-2.877.926-2.877.092 0 .519.081.948.18m28.569 1.886c1.057 4.282 1.587 8.08 1.792 12.826l.055 1.264H38.233V20.597l1.326-.002c2.504-.002 6.784-.481 9.836-1.1.95-.193 1.844-.357 1.986-.364.236-.013.308.179.769 2.052M17.737 40.238c.256 4.414.809 8.109 1.807 12.065.29 1.151.493 2.112.451 2.136-.042.024-.604.197-1.248.385-2.058.601-4.671 1.648-6.883 2.761l-.997.501-.882-1.174C5.911 51.491 3.609 45.215 3.17 38.326l-.045-.709h14.46l.152 2.621m18.03 4.698v7.319l-2.066.079c-2.582.1-5.828.468-8.513.966-1.134.21-2.21.408-2.39.44-.303.054-.341.01-.519-.603-1.084-3.73-1.94-9.187-2.129-13.578l-.084-1.942h15.701v7.319m18.175-6.055c-.205 4.74-.725 8.466-1.793 12.827-.32 1.308-.562 2.065-.66 2.065-.085 0-.702-.113-1.371-.252-3-.622-6.69-1.071-9.757-1.186l-2.128-.081V37.617h15.764l-.055 1.264m16.975-.739c0 .823-.346 3.569-.623 4.946a38.566 38.566 0 0 1-1.439 5.135c-1.029 2.808-3.282 6.839-5.045 9.03l-.667.828-1.468-.732a49.261 49.261 0 0 0-2.85-1.291c-1.418-.573-4.333-1.545-4.636-1.545-.232 0-.22-.096.197-1.654 1.102-4.116 1.977-10.259 1.977-13.883 0-.657.037-1.232.083-1.277.045-.045 3.319-.082 7.276-.082h7.195v.525m-35.15 24.323v7.829l-.401-.077c-.705-.134-2.104-.668-2.897-1.106-3.177-1.754-6.254-5.748-8.453-10.972-.88-2.092-.891-1.957.178-2.192 3.066-.672 6.599-1.081 11.172-1.292l.401-.018v7.828m5.796-7.641c2.708.148 9.25 1.116 9.25 1.369 0 .181-1.017 2.58-1.615 3.809-2.889 5.939-6.371 9.29-10.626 10.228l-.339.075v-15.69l1.018.069c.559.039 1.6.102 2.312.14m-20.296 3.174c1.351 3.697 3.48 7.162 6.338 10.312l.904.996-.657-.191c-4.368-1.268-8.424-3.333-11.819-6.018-1.195-.945-3.453-3.004-3.453-3.149 0-.102 2.596-1.307 3.947-1.831.733-.286 4.033-1.367 4.205-1.379.04-.002.281.564.535 1.26m33.246-.903c1.325.407 2.58.84 3.577 1.236 1.114.442 3.33 1.517 3.33 1.616 0 .05-.559.623-1.242 1.272-3.816 3.629-8.673 6.363-14.027 7.898l-.655.187 1.008-1.074c2.024-2.158 3.941-4.972 5.166-7.579.59-1.255 1.487-3.542 1.487-3.789 0-.178.035-.172 1.356.233" fill="#1A3453" fill-rule="evenodd"/></svg>