<svg width="50" height="90" fill="none" xmlns="http://www.w3.org/2000/svg"><path d="M33.25.178c-1.961.18-4.387.72-6.137 1.366-1.937.715-4.114 1.947-5.63 3.186-.761.622-2.077 1.955-2.693 2.728-2.036 2.555-3.514 5.9-4.165 9.423-.428 2.319-.469 3.074-.518 9.512l-.045 6.018-6.01.024-6.01.023-.417.209a1.636 1.636 0 0 0-.874 1.073c-.053.192-.084 3.054-.084 7.861 0 7.446.002 7.566.172 8.021.211.562.524.823 1.203.999.421.11 1.333.129 6.265.129h5.773l.024 18.729c.019 14.648.047 18.795.128 19.031.173.505.456.845.891 1.068l.414.214 7.871.022c7.041.02 7.92.008 8.334-.112.869-.253 1.192-.657 1.34-1.677.051-.357.082-7.366.083-18.959l.002-18.392 6.937-.027c7.76-.03 7.531-.012 8.051-.605.481-.548.47-.339.47-8.584 0-8.445.021-8.122-.565-8.69-.597-.579-.256-.554-7.947-.583l-6.928-.026-.062-2.142c-.034-1.178-.04-3.661-.014-5.517.053-3.777.093-4.109.608-5.088.344-.655.761-1.06 1.455-1.413.916-.466 1.237-.493 6.995-.591 2.91-.049 5.426-.123 5.591-.165a1.604 1.604 0 0 0 1.075-.868l.209-.417v-14.5l-.209-.416A1.636 1.636 0 0 0 47.76.168c-.374-.104-13.364-.094-14.51.01" fill="#1A3453" fill-rule="evenodd"/></svg>