<svg width="73" height="74" fill="none" xmlns="http://www.w3.org/2000/svg"><path d="M7.723.607c-3.475.511-6.288 3.031-7.197 6.45-.248.934-.279 3.176-.055 4.015.393 1.475 1.25 3.061 2.19 4.057.55.582 1.696 1.407 2.552 1.837 1.627.817 4.021 1.045 5.895.562 3.018-.778 5.522-3.347 6.237-6.399.318-1.357.199-3.474-.27-4.817C15.723 2.444 11.743.016 7.723.607m45.605 22.758c-3.684.302-7.105 1.774-9.736 4.189-.894.82-2.225 2.476-2.567 3.194-.105.219-.235.399-.289.399-.055 0-.099-1.506-.099-3.346v-3.346H26.28v48.667h14.954l.046-13.962c.049-15.396.015-14.69.829-17.119.502-1.498.977-2.287 1.987-3.301 1.438-1.443 2.875-1.982 5.561-2.085 1.293-.05 1.863-.018 2.58.141 3.01.67 4.646 2.735 5.4 6.814.181.981.208 2.664.246 15.307l.042 14.205h14.953V58.471c0-8.924-.049-15.381-.127-16.517-.469-6.881-2.073-11.429-5.069-14.377-2.606-2.564-5.916-3.876-10.62-4.211-1.923-.137-2.085-.137-3.734-.001M1.338 48.179v23.848h15.209l-.03-23.817-.031-23.816-7.574-.031-7.574-.032v23.848" fill="#1A3453" fill-rule="evenodd"/></svg>