<svg width="73" height="60" fill="none" xmlns="http://www.w3.org/2000/svg"><path d="M48.648.382c-3.767.432-7.427 2.44-9.768 5.361-1.461 1.823-2.331 3.568-2.957 5.927-.269 1.015-.311 1.433-.322 3.234-.008 1.138.031 2.426.085 2.864l.098.795-1.254-.096c-7.088-.547-14.233-3.053-20.173-7.076-2.766-1.873-6.211-4.939-8.486-7.551l-.735-.844-.446.886c-1.011 2.006-1.527 4.256-1.527 6.654 0 3.169.97 6.163 2.818 8.7.8 1.097 2.189 2.521 3.092 3.17.306.22.492.422.411.449-.268.089-2.353-.249-3.4-.551a16.81 16.81 0 0 1-2.038-.769l-1.004-.471v.767c0 1.768.776 4.648 1.724 6.396a15.125 15.125 0 0 0 9.123 7.345l1.003.289-.663.143c-1.393.3-3.249.407-4.587.266-.708-.074-1.306-.117-1.329-.093-.149.148.917 2.363 1.763 3.665.843 1.297 3.138 3.509 4.515 4.351 1.94 1.187 4.285 1.961 6.755 2.229l.724.078-.298.23c-2.443 1.887-6.104 3.75-9.314 4.739-3.118.96-5.368 1.273-9.143 1.273-1.622 0-2.95.009-2.95.02 0 .06 2.668 1.56 3.639 2.045 4.248 2.126 8.766 3.5 13.646 4.15 1.939.258 6.83.359 8.934.184 5.613-.466 10.42-1.754 15.209-4.076 2.905-1.409 5.288-2.92 7.847-4.977 1.435-1.152 5.063-4.87 6.255-6.41 5.017-6.477 8.103-13.877 9.142-21.925.106-.822.224-2.701.262-4.174l.07-2.679.586-.432c1.178-.868 2.841-2.392 3.906-3.579 1.024-1.141 2.774-3.359 2.774-3.515 0-.039-.287.046-.639.188-1.962.796-4.772 1.558-7.33 1.988l-.487.081.886-.624c2.382-1.678 4.353-4.177 5.321-6.748.17-.452.266-.802.214-.778-.052.023-.888.436-1.858.916-2.138 1.058-3.631 1.617-5.815 2.177l-1.651.423-.617-.593C58.321 2.155 55.355.773 52.013.375c-1.242-.148-2.025-.147-3.365.007" fill="#1A3453" fill-rule="evenodd"/></svg>