<svg width="73" height="74" fill="none" xmlns="http://www.w3.org/2000/svg"><path d="M54.811 3.961c-9.435 1.363-17.224 2.48-17.307 2.482-.121.004-.152 2.778-.152 13.45v13.444h35.405V1.46l-.396.012c-.217.006-8.115 1.126-17.55 2.489m-39.846 6.082C6.968 11.203.385 12.155.335 12.159c-.051.004-.092 4.771-.092 10.593v10.585h30.052V7.908l-.395.013c-.218.007-6.938.961-14.935 2.122M.122 50.915v10.522l.273.064c.672.157 29.849 4.292 29.93 4.241.051-.031.092-5.747.092-12.703V40.393H.122v10.522m37.23 2.848v13.37l.395.074c.218.04 8.061 1.168 17.429 2.506 9.368 1.337 17.156 2.461 17.307 2.497l.274.065V40.393H37.352v13.37" fill="#1A3453" fill-rule="evenodd"/></svg>